<svg width="32" height="32" viewBox="0 0 32 32" fill="none" xmlns="http://www.w3.org/2000/svg">
<path d="M5.64341 21.6296C5.45038 22.3444 5.43217 23.0963 5.59035 23.8199C5.74853 24.5435 6.07834 25.2171 6.55119 25.7823C6.96953 26.2868 7.50577 26.677 8.111 26.9173C8.71623 27.1577 9.37117 27.2406 10.0161 27.1583C10.2425 27.6618 10.5777 28.1071 10.9968 28.4615C11.4159 28.8158 11.9082 29.0701 12.4373 29.2054C12.7038 29.2713 12.9772 29.3047 13.2515 29.3049C13.7821 29.3009 14.3049 29.175 14.7805 28.9366C15.2562 28.6983 15.6725 28.3538 15.998 27.9289C16.4073 28.4672 16.9612 28.8741 17.5932 29.1006C18.2252 29.327 18.9083 29.3634 19.5602 29.2054C20.0893 29.0701 20.5816 28.8159 21.0007 28.4615C21.4198 28.1072 21.755 27.6618 21.9814 27.1583C22.6263 27.2405 23.2812 27.1577 23.8865 26.9173C24.4917 26.6769 25.0279 26.2868 25.4463 25.7823C25.9196 25.2174 26.2499 24.5439 26.4085 23.8202C26.5671 23.0966 26.5493 22.3447 26.3566 21.6296C27.2883 21.0736 28.054 20.2721 28.5724 19.3102C29.0908 18.3483 29.3425 17.262 29.3008 16.1666C29.3425 15.0713 29.0908 13.9849 28.5724 13.0229C28.054 12.061 27.2883 11.2594 26.3566 10.7034C26.5497 9.9886 26.5679 9.23681 26.4097 8.51323C26.2515 7.78965 25.9217 7.11611 25.4489 6.55097C25.0306 6.04628 24.4943 5.65591 23.8889 5.41554C23.2835 5.17517 22.6284 5.09245 21.9834 5.17494C21.757 4.67145 21.4219 4.22605 21.0028 3.8717C20.5836 3.51735 20.0913 3.26313 19.5622 3.12786C18.9103 2.96984 18.2272 3.00626 17.5952 3.23274C16.9632 3.45921 16.4093 3.86608 16 4.40438C15.5908 3.86608 15.0368 3.45921 14.4048 3.23274C13.7728 3.00626 13.0898 2.96984 12.4379 3.12786C11.9087 3.26313 11.4164 3.51735 10.9973 3.8717C10.5782 4.22605 10.243 4.67145 10.0166 5.17494C9.37173 5.09255 8.71673 5.17532 8.11147 5.41569C7.50621 5.65606 6.96999 6.04636 6.55176 6.55097C6.07881 7.11605 5.7489 7.78958 5.59062 8.51316C5.43234 9.23674 5.45046 9.98855 5.64341 10.7034C4.71178 11.2594 3.94609 12.061 3.42769 13.0229C2.90929 13.9849 2.65755 15.0713 2.69921 16.1666C2.65754 17.262 2.90928 18.3483 3.42768 19.3102C3.94609 20.2721 4.71178 21.0736 5.64341 21.6296ZM19.2675 4.3568C19.586 4.43927 19.8842 4.58791 20.1432 4.79331C20.4021 4.99871 20.6162 5.2564 20.7718 5.55006C20.0912 5.90525 19.5165 6.43829 19.1071 7.09408C18.6976 7.74987 18.4682 8.50464 18.4427 9.2804C18.4381 9.3638 18.4498 9.44731 18.4772 9.52609C18.5046 9.60488 18.5471 9.67738 18.6023 9.73942C18.6574 9.80145 18.7242 9.85179 18.7986 9.88752C18.8731 9.92325 18.9538 9.94367 19.0361 9.9476C19.1184 9.95153 19.2006 9.93888 19.278 9.9104C19.3555 9.88192 19.4266 9.83817 19.4873 9.78166C19.5479 9.72516 19.597 9.65702 19.6315 9.5812C19.6661 9.50537 19.6855 9.42335 19.6886 9.33987C19.7026 8.74982 19.8842 8.1764 20.2118 7.68851C20.5393 7.20062 20.9988 6.81901 21.5351 6.58955C22.0492 6.38908 22.6123 6.35734 23.1452 6.49882C23.678 6.6403 24.1535 6.94786 24.5048 7.37809C24.8908 7.84245 25.1427 8.406 25.2327 9.00646C25.3227 9.60692 25.2472 10.2209 25.0146 10.7806C24.9511 10.9345 24.9502 11.1076 25.0121 11.2622C25.074 11.4168 25.1937 11.5403 25.345 11.6057C27.0267 12.3342 28.1153 14.1587 28.0538 16.1469C28.0538 16.16 28.0538 16.1733 28.0538 16.1864C28.1153 18.1743 27.0267 19.9991 25.345 20.7273C25.1937 20.7928 25.074 20.9163 25.0121 21.0709C24.9502 21.2256 24.9511 21.3987 25.0146 21.5527C25.2472 22.1124 25.3227 22.7264 25.2327 23.3268C25.1427 23.9273 24.8908 24.4908 24.5048 24.9552C24.1535 25.3854 23.678 25.693 23.1452 25.8345C22.6123 25.9759 22.0492 25.9442 21.5351 25.7437C20.9988 25.5143 20.5393 25.1326 20.2117 24.6447C19.8842 24.1567 19.7025 23.5832 19.6886 22.9931C19.6796 22.8265 19.606 22.6702 19.4838 22.5584C19.3616 22.4466 19.2008 22.3883 19.0364 22.3961C18.872 22.404 18.7174 22.4775 18.6062 22.6005C18.495 22.7235 18.4362 22.8861 18.4427 23.0529C18.4682 23.8286 18.6976 24.5834 19.1071 25.2392C19.5165 25.895 20.0912 26.428 20.7718 26.7832C20.6162 27.0769 20.4021 27.3346 20.1432 27.54C19.8842 27.7454 19.586 27.894 19.2675 27.9765C18.7305 28.0956 18.1691 28.0164 17.6845 27.7533C17.1998 27.4901 16.8237 27.0603 16.6237 26.541V5.79231C16.8236 5.27296 17.1997 4.84301 17.6844 4.57985C18.1691 4.31669 18.7305 4.23759 19.2675 4.3568ZM6.65504 11.6057C6.80638 11.5403 6.92605 11.4168 6.98796 11.2622C7.04986 11.1076 7.04897 10.9345 6.98548 10.7806C6.75287 10.2209 6.67738 9.60692 6.76735 9.00646C6.85732 8.406 7.10925 7.84245 7.4953 7.37809C7.84657 6.94793 8.32213 6.64043 8.85493 6.49895C9.38772 6.35748 9.95087 6.38917 10.465 6.58955C11.0012 6.81901 11.4607 7.20062 11.7883 7.68851C12.1158 8.1764 12.2975 8.74982 12.3114 9.33987C12.3206 9.50636 12.3943 9.66242 12.5164 9.7741C12.6385 9.88577 12.7992 9.94403 12.9634 9.93619C13.1277 9.92835 13.2823 9.85505 13.3935 9.73223C13.5047 9.60942 13.5636 9.44703 13.5574 9.2804C13.5318 8.50464 13.3025 7.74987 12.893 7.09408C12.4835 6.43829 11.9088 5.90525 11.2283 5.55006C11.3839 5.2564 11.5979 4.99871 11.8569 4.79331C12.1158 4.58791 12.414 4.43927 12.7325 4.3568C13.2696 4.23759 13.831 4.31669 14.3157 4.57985C14.8003 4.84301 15.1765 5.27296 15.3763 5.79231V26.541C15.1764 27.0603 14.8002 27.4901 14.3156 27.7533C13.8309 28.0164 13.2696 28.0956 12.7325 27.9765C12.414 27.894 12.1158 27.7454 11.8569 27.54C11.5979 27.3346 11.3839 27.0769 11.2283 26.7832C11.9088 26.428 12.4835 25.895 12.893 25.2392C13.3025 24.5834 13.5318 23.8286 13.5574 23.0529C13.5639 22.8861 13.5051 22.7235 13.3939 22.6005C13.2827 22.4775 13.128 22.404 12.9636 22.3961C12.7992 22.3883 12.6384 22.4466 12.5163 22.5584C12.3941 22.6702 12.3205 22.8265 12.3114 22.9931C12.2975 23.5832 12.1159 24.1567 11.7883 24.6447C11.4608 25.1326 11.0013 25.5143 10.465 25.7437C9.95088 25.9442 9.38772 25.9759 8.85491 25.8344C8.3221 25.6929 7.84654 25.3854 7.4953 24.9552C7.10925 24.4908 6.85732 23.9273 6.76735 23.3268C6.67738 22.7264 6.75287 22.1124 6.98548 21.5527C7.04898 21.3987 7.04988 21.2256 6.98798 21.0709C6.92608 20.9163 6.8064 20.7928 6.65504 20.7273C4.97338 19.9991 3.88479 18.1743 3.9463 16.1864C3.9463 16.1733 3.9463 16.16 3.9463 16.1469C3.88479 14.159 4.97338 12.3342 6.65504 11.6057ZM18.4604 14.9409C18.4225 14.7777 18.45 14.6058 18.5369 14.4631C18.6238 14.3204 18.763 14.2186 18.9239 14.1799C19.6012 14.0247 20.3087 14.0769 20.9566 14.33C21.6046 14.5831 22.1638 15.0256 22.5633 15.6015C22.9735 16.1901 23.2237 16.8778 23.2887 17.5955C23.3537 18.3132 23.2313 19.0356 22.9338 19.6901C22.8998 19.7664 22.8512 19.8351 22.7908 19.8923C22.7305 19.9494 22.6595 19.9938 22.5821 20.0229C22.5046 20.0519 22.4223 20.0651 22.3398 20.0617C22.2573 20.0583 22.1763 20.0382 22.1015 20.0028C22.0267 19.9674 21.9595 19.9172 21.904 19.8553C21.8484 19.7933 21.8056 19.7208 21.7779 19.6419C21.7502 19.563 21.7382 19.4794 21.7426 19.3958C21.7471 19.3122 21.7678 19.2303 21.8037 19.1549C22.0084 18.7049 22.0927 18.2083 22.0483 17.7148C22.0038 17.2214 21.832 16.7485 21.5503 16.3436C21.2976 15.9675 20.9389 15.6772 20.5212 15.5108C20.1034 15.3444 19.6459 15.3094 19.2083 15.4106C19.0477 15.4485 18.8789 15.4203 18.7387 15.3323C18.5986 15.2443 18.4985 15.1036 18.4604 14.9409ZM9.07654 19.4795C8.77123 18.8628 8.64445 18.171 8.71091 17.4842C8.77736 16.7974 9.03432 16.1438 9.45203 15.599C9.86973 15.0542 10.4311 14.6406 11.0711 14.406C11.7111 14.1715 12.4035 14.1256 13.0681 14.2736C13.2286 14.3107 13.3681 14.4106 13.4563 14.5516C13.5444 14.6926 13.574 14.8632 13.5386 15.0262C13.5033 15.1892 13.4058 15.3314 13.2674 15.4219C13.1291 15.5123 12.9611 15.5436 12.8001 15.5089C12.3655 15.4119 11.9127 15.4418 11.4942 15.595C11.0757 15.7483 10.7086 16.0186 10.4355 16.3748C10.1623 16.731 9.99424 17.1584 9.9508 17.6074C9.90736 18.0565 9.99031 18.5088 10.19 18.912C10.2268 18.9863 10.2487 19.0672 10.2546 19.1501C10.2605 19.233 10.2503 19.3163 10.2245 19.3952C10.1986 19.474 10.1578 19.547 10.1041 19.6099C10.0505 19.6727 9.9852 19.7242 9.91194 19.7615C9.83868 19.7988 9.75889 19.821 9.67715 19.827C9.5954 19.833 9.51329 19.8226 9.4355 19.7964C9.35772 19.7702 9.28578 19.7288 9.22379 19.6744C9.16181 19.62 9.111 19.5538 9.07425 19.4795H9.07654Z" fill="#1D1D1F"/>
</svg>
