<svg width="32" height="32" viewBox="0 0 32 32" fill="none" xmlns="http://www.w3.org/2000/svg">
<path d="M26.3835 2.50015H22.8929C22.8108 2.49834 22.7292 2.51337 22.6529 2.54434C22.5766 2.57531 22.5071 2.62161 22.4484 2.68051C22.3897 2.73942 22.3431 2.80975 22.3113 2.88738C22.2795 2.96501 22.2631 3.04837 22.2631 3.13258C22.2631 3.21679 22.2795 3.30016 22.3113 3.37779C22.3431 3.45542 22.3897 3.52574 22.4484 3.58465C22.5071 3.64356 22.5766 3.68985 22.6529 3.72083C22.7292 3.7518 22.8108 3.76682 22.8929 3.76502H24.8952L21.9115 6.82753C20.6006 5.70602 18.9283 5.128 17.2231 5.20704C15.518 5.28607 13.9033 6.01645 12.6963 7.25467C12.1968 7.76594 11.777 8.35319 11.4519 8.99572C9.72735 9.09642 8.10376 9.8628 6.90717 11.141C5.71057 12.4191 5.02959 14.1144 5.00094 15.8865C4.9723 17.6585 5.59812 19.3761 6.75274 20.6942C7.90737 22.0124 9.50529 22.8336 11.2257 22.9929V25.6199H9.30615C9.14264 25.6199 8.98581 25.6865 8.87019 25.8051C8.75456 25.9238 8.6896 26.0847 8.6896 26.2525C8.6896 26.4202 8.75456 26.5811 8.87019 26.6998C8.98581 26.8184 9.14264 26.885 9.30615 26.885H11.2257V28.8539C11.2239 28.9381 11.2385 29.0218 11.2687 29.1001C11.2989 29.1784 11.344 29.2497 11.4015 29.3099C11.4589 29.3701 11.5274 29.4179 11.6031 29.4505C11.6787 29.4832 11.76 29.5 11.8421 29.5C11.9241 29.5 12.0054 29.4832 12.0811 29.4505C12.1567 29.4179 12.2253 29.3701 12.2827 29.3099C12.3401 29.2497 12.3852 29.1784 12.4154 29.1001C12.4456 29.0218 12.4602 28.9381 12.4585 28.8539V26.8847H14.378C14.5415 26.8847 14.6983 26.8181 14.8139 26.6995C14.9296 26.5808 14.9945 26.4199 14.9945 26.2522C14.9945 26.0844 14.9296 25.9235 14.8139 25.8049C14.6983 25.6862 14.5415 25.6196 14.378 25.6196H12.4585V22.9926C13.6053 22.8849 14.7071 22.4825 15.6623 21.8226C16.6175 21.1626 17.3953 20.2664 17.9237 19.2166C19.188 19.1428 20.4075 18.71 21.4461 17.9666C22.4846 17.2231 23.3014 16.1982 23.8053 15.0062C24.3092 13.8142 24.4803 12.502 24.2996 11.216C24.1189 9.92996 23.5935 8.72076 22.782 7.7233L25.7669 4.65963V6.68244C25.7669 6.85021 25.8319 7.01111 25.9475 7.12975C26.0631 7.24838 26.2199 7.31502 26.3835 7.31502C26.547 7.31502 26.7038 7.24838 26.8194 7.12975C26.935 7.01111 27 6.85021 27 6.68244V3.13273C27 2.96496 26.935 2.80406 26.8194 2.68542C26.7038 2.56679 26.547 2.50015 26.3835 2.50015ZM17.1196 17.9488C16.2574 17.8831 15.4217 17.6137 14.6777 17.1619C13.9337 16.71 13.3016 16.0878 12.8306 15.3439C12.3597 14.6 12.0627 13.7544 11.9629 12.8733C11.8631 11.9922 11.9631 11.0993 12.2551 10.2644C13.1175 10.3298 13.9533 10.599 14.6975 11.0507C15.4417 11.5025 16.0739 12.1247 16.5449 12.8687C17.0159 13.6127 17.3129 14.4584 17.4126 15.3397C17.5123 16.2209 17.412 17.1139 17.1196 17.9488ZM11.8431 21.7565C10.4342 21.7559 9.0772 21.2112 8.0419 20.2309C7.0066 19.2505 6.36886 17.9063 6.25552 16.4655C6.14218 15.0247 6.56154 13.5929 7.4302 12.4549C8.29886 11.3169 9.55317 10.556 10.9437 10.3236C10.7768 10.9399 10.6925 11.5767 10.6931 12.2164C10.6925 13.8995 11.2822 15.5266 12.3544 16.8005C13.4266 18.0744 14.9097 18.9099 16.5328 19.1545C16.0229 19.9534 15.3273 20.6096 14.5086 21.0638C13.6899 21.5181 12.7738 21.7561 11.8431 21.7565ZM21.494 16.2835C20.664 17.1364 19.5927 17.6985 18.4328 17.8896C18.6934 16.9303 18.7521 15.9251 18.605 14.9407C18.458 13.9563 18.1086 13.0153 17.58 12.1801C17.0514 11.3449 16.3557 10.6345 15.539 10.0963C14.7224 9.55803 13.8035 9.20414 12.8434 9.05811C13.0546 8.73088 13.2974 8.42639 13.5683 8.14928C14.6194 7.07079 16.0451 6.4649 17.5317 6.4649C19.0183 6.4649 20.444 7.07079 21.4952 8.14928C22.5449 9.22886 23.1344 10.6916 23.1342 12.2166C23.134 13.7416 22.5441 15.2042 21.494 16.2835Z" fill="#1D1D1F"/>
</svg>
