<svg width="32" height="32" viewBox="0 0 32 32" fill="none" xmlns="http://www.w3.org/2000/svg">
<path d="M14.6269 10.9114C15.0123 10.9114 15.3782 10.8343 15.7072 10.6962C16.0508 10.5517 16.3599 10.339 16.6156 10.0761L16.6336 10.0586C16.9041 9.81001 17.1233 9.50934 17.2719 9.17532C17.414 8.8556 17.4934 8.5 17.4934 8.12535V3.90323C17.4934 3.68066 17.6793 3.5 17.9083 3.5C18.1373 3.5 18.3231 3.68066 18.3231 3.90323V8.12535C18.3231 8.60763 18.2183 9.07087 18.0304 9.49346C17.8374 9.92748 17.5558 10.3161 17.2099 10.6361C17.1148 10.7333 17.0138 10.8254 16.9074 10.9114H19.1124C19.6086 10.9114 20.0852 11.0133 20.52 11.1959C20.9665 11.3835 21.3664 11.6572 21.6957 11.9935C22.0416 12.3135 22.3229 12.7018 22.5159 13.1358C22.678 13.5 22.7779 13.8947 22.8028 14.3055C24.4894 14.3538 26.0133 15.0392 27.1275 16.1226C28.2846 17.2452 29 18.7981 29 20.5126C29 22.2271 28.2846 23.78 27.1288 24.9034L27.1043 24.9253C25.9499 26.0356 24.3623 26.722 22.611 26.722C20.848 26.722 19.2509 26.0267 18.0948 24.9034C17.873 24.6881 17.6672 24.4569 17.4797 24.2118H11.6895C11.4637 24.2118 11.2576 24.2976 11.1067 24.4366L11.089 24.4547C10.9352 24.6043 10.8391 24.8113 10.8391 25.0386V28.0968C10.8391 28.3193 10.6533 28.5 10.4243 28.5C10.1953 28.5 10.0094 28.3193 10.0094 28.0968V25.0386C10.0094 24.5887 10.1982 24.1801 10.5024 23.8845L10.5285 23.8613C10.8307 23.5794 11.241 23.4054 11.6895 23.4054H16.9564C16.5745 22.7021 16.3278 21.9188 16.2494 21.0886H11.6186C11.2331 21.0886 10.8672 21.1657 10.5383 21.3039C10.1946 21.4483 9.8856 21.661 9.62982 21.9239L9.61185 21.9414C9.34137 22.19 9.12217 22.4907 8.97354 22.8247C8.83144 23.1444 8.75206 23.5 8.75206 23.8747V28.0968C8.75206 28.3193 8.56618 28.5 8.33719 28.5C8.10819 28.5 7.92232 28.3193 7.92232 28.0968V23.8747C7.92232 23.3924 8.02718 22.9291 8.21501 22.5065C8.40807 22.0725 8.68966 21.6839 9.03561 21.3639C9.13067 21.2667 9.23161 21.1746 9.3381 21.0886H7.69626C7.20005 21.0886 6.72344 20.9867 6.28864 20.8041C5.84241 20.6165 5.44257 20.3428 5.11329 20.0065C4.76963 19.6887 4.49 19.3039 4.2976 18.8851C4.10682 18.4683 4 18.0161 4 17.5618C4 17.1074 4.10682 16.6553 4.2976 16.2384C4.49 15.8197 4.76963 15.4348 5.11329 15.117C5.37854 14.8459 5.68986 14.6157 6.03417 14.4382C5.68986 14.2607 5.37854 14.0305 5.11329 13.7594C4.76963 13.4416 4.49 13.0568 4.2976 12.638C4.10682 12.2211 4 11.769 4 11.3146C4 10.8603 4.10649 10.4085 4.29792 9.9913C4.49033 9.57252 4.76931 9.18802 5.11329 8.86989C5.44224 8.53366 5.84209 8.26029 6.28832 8.07264C6.72311 7.89008 7.19973 7.78816 7.69626 7.78816H14.556C14.7896 7.78816 15.0025 7.69482 15.1564 7.54528C15.3103 7.39573 15.4063 7.18841 15.4063 6.96139V3.90323C15.4063 3.68066 15.5922 3.5 15.8212 3.5C16.0502 3.5 16.2361 3.68066 16.2361 3.90323V6.96139C16.2361 7.41097 16.0472 7.81991 15.7431 8.11551C15.439 8.4111 15.0186 8.59462 14.556 8.59462H7.69626C7.31047 8.59462 6.9446 8.67177 6.61564 8.80988C6.27264 8.95403 5.96296 9.16707 5.7075 9.42996L5.68953 9.44742C5.42068 9.69444 5.20247 9.99352 5.05318 10.319C4.90977 10.6317 4.82974 10.9717 4.82974 11.3146C4.82974 11.6579 4.90977 11.9979 5.05286 12.3103C5.20214 12.6358 5.42068 12.9348 5.68953 13.1819L5.7075 13.1993C5.96328 13.4625 6.27264 13.6756 6.61597 13.8197C6.94492 13.9578 7.31079 14.035 7.69626 14.035H18.4783C18.7073 14.035 18.8932 14.2156 18.8932 14.4382C18.8932 14.6608 18.7073 14.8414 18.4783 14.8414H7.69626C7.31079 14.8414 6.94492 14.9186 6.61597 15.0567C6.27264 15.2009 5.96328 15.4139 5.7075 15.6771L5.68953 15.6946C5.42068 15.9416 5.20214 16.2407 5.05286 16.5661C4.90977 16.8785 4.82974 17.2186 4.82974 17.5618C4.82974 17.905 4.90977 18.245 5.05286 18.5575C5.20214 18.8829 5.42068 19.182 5.68953 19.429L5.7075 19.4465C5.96328 19.7097 6.27264 19.9227 6.61597 20.0669C6.94492 20.205 7.31079 20.2821 7.69626 20.2821H16.2262C16.2573 19.4589 16.453 18.6762 16.7829 17.965H7.76715C7.53815 17.965 7.35228 17.7844 7.35228 17.5618C7.35228 17.3392 7.53815 17.1586 7.76715 17.1586H17.2334C17.4816 16.7833 17.7704 16.4356 18.0935 16.1216L18.118 16.0994C19.1307 15.1253 20.4765 14.4779 21.9733 14.3334C21.9531 14.0213 21.8776 13.7248 21.7574 13.454C21.6088 13.12 21.3899 12.8196 21.1194 12.571L21.1015 12.5535C20.8457 12.2906 20.5363 12.0776 20.1927 11.9331C19.8637 11.795 19.4978 11.7179 19.1124 11.7179H7.76715C7.53815 11.7179 7.35228 11.5372 7.35228 11.3146C7.35228 11.0921 7.53815 10.9114 7.76715 10.9114H14.6269ZM19.4358 18.2165C19.6494 18.2165 19.8444 18.3016 19.9859 18.4387C20.129 18.5781 20.2162 18.7677 20.2162 18.975C20.2162 19.1826 20.1286 19.3722 19.9875 19.5097C19.8441 19.6487 19.6494 19.7335 19.4358 19.7335C19.2225 19.7335 19.0271 19.6484 18.8857 19.5112C18.7426 19.3719 18.6554 19.1826 18.6554 18.975C18.6554 18.7677 18.7429 18.5778 18.884 18.4403C19.0274 18.3012 19.2225 18.2165 19.4358 18.2165ZM22.6469 18.3974C22.7067 18.6121 22.576 18.8337 22.3552 18.8918C22.1344 18.9499 21.9064 18.8229 21.8466 18.6083C21.7747 18.3514 21.7767 18.0831 21.845 17.8329C21.9136 17.5812 22.0495 17.3465 22.2432 17.1582L22.2703 17.1341C22.4601 16.9585 22.691 16.8347 22.9377 16.7712C23.1935 16.7055 23.4692 16.7039 23.7354 16.7747C23.9552 16.8328 24.0853 17.0538 24.0255 17.2675C23.9657 17.4811 23.7383 17.6075 23.5185 17.5494C23.3966 17.517 23.2686 17.5183 23.148 17.5491C23.0376 17.5777 22.9331 17.6329 22.8462 17.7116L22.8299 17.7285C22.7394 17.8164 22.676 17.9241 22.6453 18.0374C22.6139 18.1523 22.6133 18.2771 22.6469 18.3974ZM25.7121 22.136C25.6523 21.9214 25.783 21.6998 26.0038 21.6417C26.2246 21.5836 26.4526 21.7106 26.5124 21.9252C26.5843 22.1824 26.5823 22.45 26.514 22.7005C26.4454 22.9523 26.3096 23.1869 26.1158 23.3752L26.0887 23.3994C25.8989 23.5749 25.668 23.6988 25.4213 23.7623C25.1636 23.8286 24.8879 23.8302 24.6236 23.7604C24.4028 23.7022 24.2721 23.4806 24.3319 23.266C24.3917 23.0514 24.6197 22.9244 24.8405 22.9825C24.9643 23.0152 25.0924 23.0149 25.211 22.9844C25.3214 22.9558 25.4259 22.9006 25.5128 22.8218L25.5291 22.805C25.6196 22.717 25.683 22.6094 25.7137 22.4961C25.7451 22.3808 25.7457 22.2564 25.7121 22.136ZM25.747 18.5232C25.9626 18.5232 26.1576 18.6083 26.2988 18.7454C26.4396 18.8823 26.5271 19.0725 26.5271 19.2817C26.5271 19.4909 26.4396 19.6811 26.2988 19.8179C26.1576 19.9551 25.9626 20.0402 25.747 20.0402C25.5337 20.0402 25.3384 19.9551 25.1969 19.8179C25.0538 19.6786 24.9666 19.4893 24.9666 19.2817C24.9666 19.0744 25.0542 18.8845 25.1953 18.747C25.3387 18.608 25.5337 18.5232 25.747 18.5232ZM19.4701 22.4345C19.2411 22.4345 19.0552 22.2538 19.0552 22.0312C19.0552 21.8087 19.2411 21.628 19.4701 21.628H19.9326C19.965 21.5166 20.011 21.4105 20.0679 21.3115L19.7406 20.9933C19.5789 20.8362 19.5789 20.5803 19.7406 20.4231C19.9023 20.2659 20.1656 20.2659 20.3273 20.4231L20.6546 20.7412C20.7565 20.686 20.8656 20.6415 20.9803 20.6101V20.1602C20.9803 19.9376 21.1661 19.757 21.3951 19.757C21.6241 19.757 21.81 19.9376 21.81 20.1602V20.6101C21.9247 20.6415 22.0338 20.686 22.1357 20.7412L22.463 20.4231C22.6247 20.2659 22.888 20.2659 23.0497 20.4231C23.2114 20.5803 23.2114 20.8362 23.0497 20.9933L22.7221 21.3118C22.7789 21.4108 22.824 21.5169 22.8567 21.628H23.3202C23.5492 21.628 23.7351 21.8087 23.7351 22.0312C23.7351 22.2538 23.5492 22.4345 23.3202 22.4345H22.8567C22.824 22.5456 22.7789 22.6516 22.7221 22.7507L23.0497 23.0692C23.2114 23.2263 23.2114 23.4822 23.0497 23.6394C22.888 23.7965 22.6247 23.7965 22.463 23.6394L22.1354 23.3209C22.0338 23.3762 21.9247 23.4206 21.81 23.4521V23.9023C21.81 24.1248 21.6241 24.3055 21.3951 24.3055C21.1661 24.3055 20.9803 24.1248 20.9803 23.9023V23.4521C20.8659 23.4203 20.7568 23.3762 20.6549 23.3209L20.3273 23.6394C20.1656 23.7965 19.9023 23.7965 19.7406 23.6394C19.5789 23.4822 19.5789 23.2263 19.7406 23.0692L20.0679 22.751C20.011 22.652 19.965 22.5459 19.9326 22.4345H19.4701ZM21.8829 21.5569L21.877 21.5515L21.8714 21.5458C21.7502 21.4334 21.5862 21.3635 21.4059 21.3607H21.3951H21.3863C21.206 21.3635 21.04 21.4337 20.9189 21.5461L20.9149 21.5499L20.9074 21.5572L20.9015 21.5629C20.7839 21.681 20.7082 21.8436 20.7052 22.0208V22.0312V22.0395C20.7082 22.2148 20.7803 22.3764 20.8957 22.4938L20.8999 22.498L20.9071 22.5053L20.913 22.5107L20.9185 22.5164C21.0397 22.6285 21.204 22.6986 21.3844 22.7015H21.3951H21.404C21.5843 22.6986 21.7502 22.6288 21.8714 22.5164L21.8753 22.5126L21.8829 22.5053L21.8887 22.4996C22.0063 22.3814 22.0818 22.2189 22.0847 22.0417V22.0312V22.023C22.0818 21.8477 22.0099 21.6861 21.8943 21.5683L21.8904 21.5645L21.8829 21.5569ZM26.5418 16.6909C25.5373 15.7136 24.147 15.1091 22.611 15.1091C21.0848 15.1091 19.7027 15.706 18.6995 16.6715L18.6802 16.6918C17.6744 17.6694 17.0517 19.0207 17.0517 20.5126C17.0517 22.0046 17.6744 23.3559 18.6799 24.3331C19.6847 25.3107 21.0753 25.9155 22.611 25.9155C24.1365 25.9155 25.5187 25.3186 26.5229 24.3531L26.5421 24.3331C27.5476 23.3559 28.1703 22.0046 28.1703 20.5126C28.1703 19.0207 27.5476 17.6694 26.5418 16.6909Z" fill="black"/>
</svg>
