<svg width="32" height="32" viewBox="0 0 32 32" fill="none" xmlns="http://www.w3.org/2000/svg">
<path d="M17.0059 15.4773C17.5416 15.9252 18.0475 16.3452 18.456 16.7197C18.5679 16.8226 18.7141 16.8796 18.8658 16.8796C19.0176 16.8796 19.1638 16.8226 19.2757 16.7197C19.6828 16.3466 20.1887 15.9244 20.7258 15.4773C23.0857 13.5056 26.0264 11.0516 26.1505 8.36462C26.2018 7.24846 25.757 6.209 24.8287 5.27845C24.0168 4.48124 22.9246 4.03736 21.7889 4.04303H21.7855C20.6992 4.04491 19.6544 4.46273 18.8643 5.21126C18.0753 4.46323 17.0317 4.04543 15.9464 4.04303H15.9436C14.8071 4.03701 13.714 4.48101 12.9014 5.27873C11.9733 6.21068 11.5285 7.24902 11.5795 8.36518C11.7025 11.0513 14.643 13.5053 17.0059 15.4773ZM13.7611 6.14126C14.3453 5.57186 15.1294 5.25644 15.9436 5.26333H15.9461C16.4184 5.26422 16.8839 5.37555 17.3058 5.58849C17.7278 5.80142 18.0944 6.11011 18.3768 6.49007C18.4334 6.56646 18.507 6.6285 18.5918 6.67125C18.6765 6.71399 18.77 6.73625 18.8649 6.73625C18.9597 6.73625 19.0532 6.71399 19.138 6.67125C19.2227 6.6285 19.2963 6.56646 19.3529 6.49007C19.6355 6.11015 20.0023 5.8015 20.4243 5.58857C20.8463 5.37564 21.3118 5.26429 21.7842 5.26333H21.7864C22.6004 5.25659 23.3843 5.572 23.9683 6.14126C24.6544 6.82993 24.9706 7.53877 24.9355 8.30863C24.837 10.4573 22.0103 12.8158 19.9464 14.5389C19.5646 14.8578 19.1973 15.1641 18.8649 15.4535C18.5324 15.1641 18.1654 14.8575 17.7837 14.5389C15.72 12.8164 12.893 10.4573 12.7946 8.30863C12.7589 7.53877 13.0751 6.82993 13.7611 6.14126ZM27.473 17.8205C27.2174 17.7507 26.9506 17.7325 26.688 17.7669C26.4254 17.8013 26.1722 17.8876 25.943 18.0209L25.7529 18.1312C25.7148 17.7977 25.5946 17.4788 25.4031 17.2035C25.2116 16.9282 24.9549 16.7051 24.6561 16.5542C24.3573 16.4033 24.0258 16.3295 23.6915 16.3393C23.3571 16.3492 23.0305 16.4424 22.741 16.6106L19.4488 18.5187L12.3054 16.5394C12.2282 16.5181 12.1476 16.5123 12.0681 16.5223C11.9887 16.5323 11.912 16.5581 11.8425 16.598L6.705 19.5428C6.52243 19.3469 6.27925 19.2188 6.01497 19.1792C5.75069 19.1396 5.48084 19.1909 5.24926 19.3247L3.62285 20.2673C3.35122 20.4252 3.15309 20.6849 3.0719 20.9892C2.99071 21.2936 3.03309 21.6179 3.18975 21.891L6.33799 27.3646C6.49508 27.6375 6.7537 27.8367 7.05702 27.9182C7.36033 27.9998 7.6835 27.9572 7.95548 27.7996L9.58161 26.857C9.8131 26.7224 9.99243 26.5131 10.0904 26.2632C10.1885 26.0133 10.1994 25.7374 10.1215 25.4805L11.0633 24.9438L18.3364 26.8985C18.4921 26.9402 18.658 26.9183 18.7977 26.8374L27.9599 21.527C28.3054 21.3271 28.584 21.0287 28.7604 20.6697C28.9369 20.3107 29.0032 19.9072 28.9511 19.5103C28.899 19.1134 28.7307 18.741 28.4675 18.4402C28.2044 18.1394 27.8583 17.9237 27.473 17.8205ZM23.3495 17.6674C23.4406 17.6146 23.5412 17.5803 23.6454 17.5665C23.7497 17.5528 23.8557 17.5597 23.9573 17.5871C24.0589 17.6144 24.1542 17.6616 24.2376 17.7258C24.3211 17.7901 24.3911 17.8703 24.4437 17.9617C24.4963 18.0532 24.5304 18.1541 24.5441 18.2588C24.5578 18.3635 24.5509 18.4699 24.5237 18.5719C24.4964 18.6739 24.4495 18.7695 24.3854 18.8533C24.3214 18.937 24.2415 19.0073 24.1504 19.0601L21.524 20.5819C21.4694 20.0293 21.213 19.5165 20.8042 19.1424L23.3495 17.6674ZM7.37486 26.7266L4.25869 21.3081L5.8296 20.3977L8.94577 25.8162L7.37486 26.7266ZM27.7234 19.9817C27.6968 20.0838 27.6502 20.1795 27.5864 20.2633C27.5227 20.3472 27.443 20.4175 27.3519 20.4702L18.4075 25.6541L11.1366 23.6995C10.9824 23.658 10.8181 23.6791 10.6793 23.7582L9.54006 24.4077L7.34028 20.5842L12.2256 17.7847L19.5704 19.8196C19.8263 19.8915 20.0437 20.0618 20.1753 20.2936C20.3069 20.5253 20.3421 20.7998 20.2733 21.0575C20.2046 21.3151 20.0373 21.5352 19.8079 21.6699C19.5786 21.8045 19.3055 21.8429 19.0481 21.7768L12.9596 20.1379C12.8049 20.0989 12.641 20.1226 12.5034 20.2038C12.3659 20.285 12.2656 20.4172 12.2243 20.5719C12.1831 20.7267 12.204 20.8915 12.2827 21.0309C12.3615 21.1702 12.4916 21.2729 12.6451 21.3168L18.7324 22.9545C19.1165 23.0576 19.5212 23.0555 19.9043 22.9485C20.2873 22.8414 20.6349 22.6334 20.9107 22.3459L20.9168 22.3425L26.5502 19.0778C26.6872 18.9983 26.8446 18.9615 27.0024 18.972C27.1603 18.9825 27.3115 19.0397 27.437 19.1365C27.5624 19.2333 27.6564 19.3653 27.707 19.5158C27.7577 19.6662 27.7627 19.8284 27.7214 19.9817H27.7234Z" fill="black"/>
</svg>
