<svg width="32" height="32" viewBox="0 0 32 32" fill="none" xmlns="http://www.w3.org/2000/svg">
<path d="M16 7.71217C15.5033 7.71217 15.0178 7.56489 14.6048 7.28893C14.1918 7.01298 13.8699 6.62076 13.6798 6.16187C13.4897 5.70298 13.44 5.19803 13.5369 4.71087C13.6338 4.22372 13.873 3.77623 14.2242 3.42501C14.5754 3.07379 15.0229 2.83461 15.5101 2.73771C15.9972 2.64081 16.5022 2.69054 16.9611 2.88062C17.4199 3.0707 17.8122 3.39259 18.0881 3.80558C18.3641 4.21857 18.5114 4.70411 18.5114 5.20081C18.5106 5.86663 18.2458 6.50497 17.775 6.97577C17.3042 7.44658 16.6658 7.71141 16 7.71217ZM16 3.71217C15.7058 3.71217 15.4183 3.79941 15.1737 3.96284C14.9291 4.12627 14.7384 4.35857 14.6259 4.63035C14.5133 4.90213 14.4838 5.20118 14.5412 5.4897C14.5986 5.77822 14.7403 6.04325 14.9483 6.25126C15.1563 6.45927 15.4213 6.60092 15.7098 6.65832C15.9984 6.71571 16.2974 6.68625 16.5692 6.57368C16.841 6.4611 17.0733 6.27046 17.2367 6.02587C17.4001 5.78127 17.4874 5.49371 17.4874 5.19953C17.4869 4.80519 17.3301 4.42712 17.0513 4.14828C16.7724 3.86944 16.3943 3.7126 16 3.71217Z" fill="black"/>
<path d="M6.64637 13.1106C6.14967 13.1106 5.66413 12.9633 5.25113 12.6874C4.83814 12.4114 4.51626 12.0192 4.32618 11.5603C4.1361 11.1014 4.08636 10.5965 4.18327 10.1093C4.28017 9.62215 4.51935 9.17467 4.87057 8.82345C5.22179 8.47223 5.66927 8.23305 6.15643 8.13615C6.64359 8.03925 7.14854 8.08898 7.60743 8.27906C8.06632 8.46914 8.45854 8.79102 8.73449 9.20401C9.01044 9.61701 9.15773 10.1026 9.15773 10.5993C9.15697 11.2651 8.89214 11.9034 8.42133 12.3742C7.95052 12.845 7.31219 13.1098 6.64637 13.1106ZM6.64637 9.11061C6.3522 9.11061 6.06463 9.19784 5.82004 9.36128C5.57544 9.52471 5.3848 9.757 5.27223 10.0288C5.15965 10.3006 5.1302 10.5996 5.18759 10.8881C5.24498 11.1767 5.38664 11.4417 5.59465 11.6497C5.80266 11.8577 6.06768 11.9994 6.3562 12.0568C6.64472 12.1141 6.94378 12.0847 7.21556 11.9721C7.48734 11.8595 7.71963 11.6689 7.88307 11.4243C8.0465 11.1797 8.13373 10.8921 8.13373 10.598C8.13297 10.2039 7.97598 9.82611 7.69717 9.54754C7.41837 9.26898 7.04049 9.11231 6.64637 9.11189V9.11061Z" fill="black"/>
<path d="M6.64637 23.9114C6.14967 23.9114 5.66413 23.7641 5.25113 23.4882C4.83814 23.2122 4.51626 22.82 4.32618 22.3611C4.1361 21.9022 4.08636 21.3972 4.18327 20.9101C4.28017 20.4229 4.51935 19.9755 4.87057 19.6242C5.22179 19.273 5.66927 19.0338 6.15643 18.9369C6.64359 18.84 7.14854 18.8898 7.60743 19.0798C8.06632 19.2699 8.45854 19.5918 8.73449 20.0048C9.01044 20.4178 9.15773 20.9033 9.15773 21.4C9.15697 22.0659 8.89214 22.7042 8.42133 23.175C7.95052 23.6458 7.31219 23.9106 6.64637 23.9114ZM6.64637 19.9114C6.3522 19.9114 6.06463 19.9986 5.82004 20.1621C5.57544 20.3255 5.3848 20.5578 5.27223 20.8296C5.15965 21.1013 5.1302 21.4004 5.18759 21.6889C5.24498 21.9774 5.38664 22.2425 5.59465 22.4505C5.80266 22.6585 6.06768 22.8001 6.3562 22.8575C6.64472 22.9149 6.94378 22.8855 7.21556 22.7729C7.48734 22.6603 7.71963 22.4697 7.88307 22.2251C8.0465 21.9805 8.13373 21.6929 8.13373 21.3988C8.13297 21.0046 7.97598 20.6269 7.69717 20.3483C7.41837 20.0698 7.04049 19.9131 6.64637 19.9127V19.9114Z" fill="black"/>
<path d="M25.3536 23.9114C24.8569 23.9114 24.3713 23.7641 23.9583 23.4882C23.5454 23.2122 23.2235 22.82 23.0334 22.3611C22.8433 21.9022 22.7936 21.3972 22.8905 20.9101C22.9874 20.4229 23.2266 19.9755 23.5778 19.6242C23.929 19.273 24.3765 19.0338 24.8636 18.9369C25.3508 18.84 25.8558 18.8898 26.3146 19.0798C26.7735 19.2699 27.1658 19.5918 27.4417 20.0048C27.7177 20.4178 27.8649 20.9033 27.8649 21.4C27.8642 22.0659 27.5994 22.7042 27.1285 23.175C26.6577 23.6458 26.0194 23.9106 25.3536 23.9114ZM25.3536 19.9114C25.0594 19.9114 24.7718 19.9986 24.5273 20.1621C24.2827 20.3255 24.092 20.5578 23.9794 20.8296C23.8669 21.1013 23.8374 21.4004 23.8948 21.6889C23.9522 21.9774 24.0939 22.2425 24.3019 22.4505C24.5099 22.6585 24.7749 22.8001 25.0634 22.8575C25.3519 22.9149 25.651 22.8855 25.9228 22.7729C26.1946 22.6603 26.4268 22.4697 26.5903 22.2251C26.7537 21.9805 26.8409 21.6929 26.8409 21.3988C26.8402 21.0046 26.6832 20.6269 26.4044 20.3483C26.1256 20.0698 25.7477 19.9131 25.3536 19.9127V19.9114Z" fill="black"/>
<path d="M16 29.3118C15.5033 29.3118 15.0178 29.1645 14.6048 28.8885C14.1918 28.6126 13.8699 28.2204 13.6798 27.7615C13.4897 27.3026 13.44 26.7976 13.5369 26.3105C13.6338 25.8233 13.873 25.3758 14.2242 25.0246C14.5754 24.6734 15.0229 24.4342 15.5101 24.3373C15.9972 24.2404 16.5022 24.2902 16.9611 24.4802C17.4199 24.6703 17.8122 24.9922 18.0881 25.4052C18.3641 25.8182 18.5114 26.3037 18.5114 26.8004C18.5106 27.4662 18.2458 28.1046 17.775 28.5754C17.3042 29.0462 16.6658 29.311 16 29.3118ZM16 25.3118C15.7058 25.3118 15.4183 25.399 15.1737 25.5624C14.9291 25.7259 14.7384 25.9582 14.6259 26.23C14.5133 26.5017 14.4838 26.8008 14.5412 27.0893C14.5986 27.3778 14.7403 27.6429 14.9483 27.8509C15.1563 28.0589 15.4213 28.2005 15.7098 28.2579C15.9984 28.3153 16.2974 28.2859 16.5692 28.1733C16.841 28.0607 17.0733 27.8701 17.2367 27.6255C17.4001 27.3809 17.4874 27.0933 17.4874 26.7991C17.4869 26.4048 17.3301 26.0267 17.0513 25.7479C16.7724 25.469 16.3943 25.3122 16 25.3118Z" fill="black"/>
<path d="M25.3536 13.1106C24.8569 13.1106 24.3713 12.9633 23.9583 12.6874C23.5454 12.4114 23.2235 12.0192 23.0334 11.5603C22.8433 11.1014 22.7936 10.5965 22.8905 10.1093C22.9874 9.62215 23.2266 9.17467 23.5778 8.82345C23.929 8.47223 24.3765 8.23305 24.8636 8.13615C25.3508 8.03925 25.8558 8.08898 26.3146 8.27906C26.7735 8.46914 27.1658 8.79102 27.4417 9.20401C27.7177 9.61701 27.8649 10.1026 27.8649 10.5993C27.8642 11.2651 27.5994 11.9034 27.1285 12.3742C26.6577 12.845 26.0194 13.1098 25.3536 13.1106ZM25.3536 9.11061C25.0594 9.11061 24.7718 9.19784 24.5273 9.36128C24.2827 9.52471 24.092 9.757 23.9794 10.0288C23.8669 10.3006 23.8374 10.5996 23.8948 10.8881C23.9522 11.1767 24.0939 11.4417 24.3019 11.6497C24.5099 11.8577 24.7749 11.9994 25.0634 12.0568C25.3519 12.1141 25.651 12.0847 25.9228 11.9721C26.1946 11.8595 26.4268 11.6689 26.5903 11.4243C26.7537 11.1797 26.8409 10.8921 26.8409 10.598C26.8402 10.2039 26.6832 9.82611 26.4044 9.54754C26.1256 9.26898 25.7477 9.11231 25.3536 9.11189V9.11061Z" fill="black"/>
<path d="M25.3536 19.9138C25.2178 19.9138 25.0876 19.8599 24.9916 19.7638C24.8956 19.6678 24.8416 19.5376 24.8416 19.4018V12.5999C24.8416 12.4641 24.8956 12.3339 24.9916 12.2379C25.0876 12.1418 25.2178 12.0879 25.3536 12.0879C25.4894 12.0879 25.6196 12.1418 25.7157 12.2379C25.8117 12.3339 25.8656 12.4641 25.8656 12.5999V19.4018C25.8656 19.5376 25.8117 19.6678 25.7157 19.7638C25.6196 19.8599 25.4894 19.9138 25.3536 19.9138Z" fill="black"/>
<path d="M8.37824 10.1115C8.26406 10.1116 8.15311 10.0735 8.06304 10.0033C7.97297 9.93316 7.90894 9.83488 7.88114 9.72414C7.85333 9.61339 7.86334 9.49653 7.90958 9.39213C7.95582 9.28772 8.03563 9.20177 8.13632 9.14794L14.0122 5.75594C14.131 5.68991 14.2712 5.67378 14.4019 5.71111C14.4666 5.72959 14.527 5.76064 14.5797 5.80248C14.6325 5.84433 14.6764 5.89614 14.7091 5.95498C14.7418 6.01381 14.7626 6.0785 14.7703 6.14537C14.778 6.21223 14.7724 6.27996 14.7539 6.34468C14.7355 6.4094 14.7044 6.46984 14.6626 6.52256C14.6207 6.57528 14.5689 6.61924 14.5101 6.65194L8.63424 10.0439C8.55634 10.0886 8.46803 10.1119 8.37824 10.1115Z" fill="black"/>
<path d="M14.2675 26.3131C14.1777 26.3131 14.0894 26.2895 14.0115 26.2446L8.13184 22.8484C8.07223 22.816 8.01966 22.772 7.9772 22.7191C7.93473 22.6662 7.90321 22.6053 7.88447 22.5401C7.86573 22.4749 7.86015 22.4066 7.86804 22.3392C7.87593 22.2718 7.89714 22.2066 7.93044 22.1475C7.96373 22.0884 8.00846 22.0364 8.062 21.9947C8.11554 21.9531 8.17684 21.9224 8.24233 21.9046C8.30782 21.8868 8.37619 21.8822 8.44347 21.8911C8.51075 21.9 8.5756 21.9221 8.63424 21.9563L14.5242 25.3576C14.6218 25.4139 14.6982 25.5009 14.7413 25.605C14.7845 25.7092 14.7921 25.8247 14.7629 25.9336C14.7337 26.0425 14.6694 26.1387 14.58 26.2073C14.4905 26.276 14.3809 26.3131 14.2682 26.3131H14.2675Z" fill="black"/>
<path d="M6.6464 19.9138C6.51061 19.9138 6.38038 19.8599 6.28436 19.7638C6.18834 19.6678 6.1344 19.5376 6.1344 19.4018V12.5999C6.1344 12.4641 6.18834 12.3339 6.28436 12.2379C6.38038 12.1418 6.51061 12.0879 6.6464 12.0879C6.78219 12.0879 6.91242 12.1418 7.00844 12.2379C7.10446 12.3339 7.1584 12.4641 7.1584 12.5999V19.4018C7.1584 19.5376 7.10446 19.6678 7.00844 19.7638C6.91242 19.8599 6.78219 19.9138 6.6464 19.9138Z" fill="black"/>
<path d="M23.6221 10.1112C23.5322 10.1111 23.4439 10.0874 23.3661 10.0424L17.4854 6.6475C17.3863 6.59262 17.3081 6.50638 17.2632 6.4023C17.2183 6.29821 17.2092 6.18217 17.2373 6.07236C17.2655 5.96256 17.3293 5.8652 17.4187 5.79555C17.5082 5.7259 17.6182 5.6879 17.7315 5.6875C17.8214 5.68747 17.9097 5.71108 17.9875 5.75598L23.8682 9.15118C23.9674 9.20606 24.0455 9.2923 24.0904 9.39638C24.1353 9.50047 24.1444 9.61651 24.1163 9.72632C24.0881 9.83612 24.0243 9.93348 23.9349 10.0031C23.8455 10.0728 23.7354 10.1108 23.6221 10.1112Z" fill="black"/>
<path d="M17.7325 26.3126C17.6197 26.3127 17.5101 26.2755 17.4207 26.2069C17.3312 26.1383 17.2669 26.042 17.2377 25.9331C17.2085 25.8242 17.2161 25.7087 17.2593 25.6046C17.3025 25.5004 17.3788 25.4134 17.4765 25.3571L23.3658 21.9571C23.4246 21.9244 23.4893 21.9036 23.5562 21.8959C23.623 21.8882 23.6907 21.8938 23.7555 21.9123C23.8202 21.9308 23.8806 21.9618 23.9333 22.0037C23.9861 22.0455 24.03 22.0973 24.0627 22.1561C24.0954 22.215 24.1162 22.2797 24.1239 22.3465C24.1316 22.4134 24.126 22.4811 24.1075 22.5458C24.0891 22.6106 24.058 22.671 24.0162 22.7237C23.9743 22.7765 23.9225 22.8204 23.8637 22.8531L17.9878 26.2451C17.9101 26.2896 17.822 26.3128 17.7325 26.3126Z" fill="black"/>
<path d="M13.1658 11.7197C12.8532 11.7202 12.5463 11.6367 12.2771 11.478C12.0078 11.3193 11.7862 11.0912 11.6353 10.8175C11.4844 10.5438 11.4098 10.2346 11.4193 9.92219C11.4287 9.6098 11.522 9.3057 11.6892 9.04166C11.8564 8.77762 12.0915 8.56335 12.3698 8.42124C12.6482 8.27914 12.9596 8.21442 13.2715 8.23384C13.5835 8.25327 13.8845 8.35613 14.143 8.53168C14.4016 8.70722 14.6083 8.949 14.7414 9.23175C14.8667 9.49744 14.9228 9.79044 14.9046 10.0836C14.8863 10.3768 14.7944 10.6606 14.6372 10.9087C14.4801 11.1569 14.2628 11.3613 14.0056 11.5031C13.7484 11.6449 13.4595 11.7194 13.1658 11.7197ZM13.1626 9.25415C13.0064 9.25412 12.8544 9.30481 12.7295 9.39858C12.6045 9.49235 12.5134 9.62415 12.4698 9.77414C12.4262 9.92414 12.4325 10.0842 12.4877 10.2304C12.5429 10.3765 12.6441 10.5007 12.776 10.5844C12.9079 10.6681 13.0633 10.7067 13.2191 10.6945C13.3748 10.6822 13.5223 10.6197 13.6395 10.5164C13.7566 10.4131 13.8371 10.2746 13.8688 10.1216C13.9004 9.96866 13.8816 9.80955 13.815 9.66823C13.7566 9.54454 13.6643 9.43998 13.5488 9.36668C13.4333 9.29338 13.2994 9.25436 13.1626 9.25415Z" fill="black"/>
<path d="M9.36706 17.1885C9.05458 17.1887 8.74777 17.1051 8.47869 16.9462C8.20961 16.7873 7.98813 16.5591 7.83741 16.2854C7.68668 16.0117 7.61224 15.7025 7.62186 15.3901C7.63148 15.0778 7.72481 14.7738 7.8921 14.5099C8.05938 14.2459 8.29448 14.0318 8.57283 13.8898C8.85118 13.7478 9.16256 13.6831 9.47444 13.7026C9.78631 13.7221 10.0872 13.825 10.3457 14.0005C10.6043 14.1761 10.8109 14.4178 10.944 14.7005C11.0692 14.9662 11.1254 15.2592 11.1071 15.5524C11.0889 15.8455 10.997 16.1293 10.8398 16.3775C10.6827 16.6256 10.4654 16.83 10.2082 16.9718C9.95094 17.1136 9.66206 17.1881 9.36834 17.1885H9.36706ZM9.36322 14.7245C9.24189 14.7247 9.12256 14.7555 9.01631 14.814C8.91005 14.8726 8.8203 14.9571 8.75539 15.0596C8.69048 15.1621 8.6525 15.2793 8.64497 15.4004C8.63745 15.5215 8.66062 15.6426 8.71234 15.7523C8.76737 15.8691 8.85275 15.969 8.95956 16.0414C9.06637 16.1139 9.19069 16.1564 9.31953 16.1644C9.44836 16.1724 9.57698 16.1457 9.69195 16.0869C9.80691 16.0282 9.904 15.9397 9.97306 15.8307C10.0421 15.7216 10.0806 15.596 10.0845 15.467C10.0884 15.338 10.0576 15.2103 9.99531 15.0972C9.93299 14.9842 9.84145 14.8899 9.73026 14.8244C9.61907 14.7588 9.49231 14.7243 9.36322 14.7245Z" fill="black"/>
<path d="M12.2025 23.2152C11.8899 23.2155 11.583 23.1318 11.3138 22.9729C11.0446 22.814 10.823 22.5857 10.6722 22.3119C10.5214 22.0381 10.4469 21.7288 10.4564 21.4163C10.466 21.1039 10.5594 20.7997 10.7267 20.5357C10.894 20.2716 11.1292 20.0574 11.4077 19.9153C11.6861 19.7732 11.9976 19.7085 12.3096 19.728C12.6216 19.7475 12.9226 19.8504 13.1813 20.026C13.4399 20.2016 13.6466 20.4434 13.7798 20.7262C13.9046 20.9921 13.9603 21.2852 13.9418 21.5784C13.9233 21.8715 13.8312 22.1553 13.6739 22.4034C13.5167 22.6515 13.2995 22.8559 13.0423 22.9978C12.7851 23.1397 12.4963 23.2145 12.2025 23.2152ZM12.2003 20.7489C12.0443 20.7492 11.8926 20.8001 11.7679 20.894C11.6433 20.9878 11.5525 21.1196 11.5092 21.2695C11.4659 21.4194 11.4724 21.5793 11.5277 21.7252C11.5831 21.871 11.6843 21.995 11.8161 22.0785C11.9479 22.1619 12.1033 22.2003 12.2588 22.1879C12.4143 22.1755 12.5616 22.113 12.6786 22.0097C12.7955 21.9064 12.8758 21.768 12.9073 21.6152C12.9388 21.4624 12.9199 21.3035 12.8534 21.1624C12.7949 21.0386 12.7025 20.9341 12.5868 20.8609C12.4712 20.7877 12.3372 20.7488 12.2003 20.7489Z" fill="black"/>
<path d="M22.6384 18.2998C22.3259 18.3003 22.0189 18.2168 21.7497 18.0581C21.4805 17.8994 21.2588 17.6712 21.1079 17.3976C20.957 17.1239 20.8824 16.8147 20.8919 16.5023C20.9014 16.1899 20.9946 15.8858 21.1618 15.6217C21.329 15.3577 21.5641 15.1434 21.8425 15.0013C22.1208 14.8592 22.4322 14.7945 22.7442 14.8139C23.0561 14.8333 23.3571 14.9362 23.6157 15.1118C23.8742 15.2873 24.0809 15.5291 24.2141 15.8118C24.3391 16.0775 24.3951 16.3705 24.3768 16.6636C24.3585 16.9567 24.2665 17.2404 24.1094 17.4885C23.9523 17.7366 23.7351 17.941 23.478 18.0828C23.2208 18.2247 22.9321 18.2993 22.6384 18.2998ZM22.6346 15.8358C22.4785 15.8361 22.3268 15.887 22.2022 15.9809C22.0776 16.0747 21.9868 16.2065 21.9435 16.3564C21.9002 16.5063 21.9067 16.6662 21.962 16.8121C22.0173 16.9579 22.1185 17.0819 22.2504 17.1654C22.3822 17.2488 22.5375 17.2872 22.6931 17.2748C22.8486 17.2624 22.9959 17.1999 23.1128 17.0966C23.2298 16.9933 23.31 16.8549 23.3416 16.7021C23.3731 16.5493 23.3542 16.3904 23.2877 16.2493C23.2297 16.1251 23.1374 16.02 23.0217 15.9465C22.906 15.873 22.7716 15.8342 22.6346 15.8345V15.8358Z" fill="black"/>
<path d="M18.8381 23.7704C18.4075 23.7714 17.9917 23.6135 17.6703 23.3269C17.3489 23.0404 17.1446 22.6453 17.0965 22.2174C17.0483 21.7895 17.1598 21.3589 17.4094 21.0081C17.6591 20.6573 18.0294 20.4109 18.4495 20.3162C18.8695 20.2216 19.3097 20.2852 19.6858 20.4949C20.0618 20.7047 20.3472 21.0458 20.4873 21.453C20.6274 21.8602 20.6124 22.3047 20.445 22.7014C20.2777 23.0982 19.9699 23.4192 19.5805 23.603C19.3483 23.7128 19.0949 23.7699 18.8381 23.7704ZM18.8365 21.3035C18.6802 21.3033 18.5282 21.3538 18.4031 21.4474C18.278 21.5411 18.1867 21.6728 18.143 21.8228C18.0992 21.9728 18.1054 22.133 18.1605 22.2792C18.2156 22.4254 18.3167 22.5497 18.4485 22.6335C18.5804 22.7173 18.7359 22.7561 18.8917 22.7439C19.0474 22.7317 19.195 22.6693 19.3123 22.566C19.4295 22.4627 19.51 22.3241 19.5417 22.1711C19.5734 22.0181 19.5546 21.859 19.488 21.7176C19.4479 21.6318 19.3912 21.5549 19.3212 21.4912C19.2511 21.4274 19.1692 21.3782 19.08 21.3464C19.0019 21.3183 18.9195 21.3038 18.8365 21.3035Z" fill="black"/>
<path d="M19.8013 12.2764C19.4887 12.277 19.1817 12.1937 18.9124 12.0351C18.643 11.8765 18.4213 11.6484 18.2702 11.3747C18.1192 11.1011 18.0445 10.7919 18.0538 10.4794C18.0632 10.167 18.1563 9.86282 18.3235 9.5987C18.4907 9.33459 18.7257 9.12023 19.0041 8.97805C19.2825 8.83587 19.5939 8.77108 19.9059 8.79047C20.2179 8.80985 20.5189 8.9127 20.7775 9.08825C21.0361 9.2638 21.2428 9.5056 21.376 9.78839C21.5013 10.0541 21.5574 10.3471 21.5391 10.6402C21.5209 10.9334 21.429 11.2172 21.2718 11.4653C21.1147 11.7135 20.8974 11.9179 20.6402 12.0597C20.3829 12.2015 20.0941 12.276 19.8003 12.2764H19.8013ZM19.7981 9.81079C19.642 9.81081 19.4901 9.8615 19.3653 9.95525C19.2404 10.049 19.1494 10.1807 19.1059 10.3306C19.0623 10.4806 19.0686 10.6406 19.1238 10.7866C19.179 10.9326 19.2801 11.0568 19.4119 11.1405C19.5437 11.2241 19.6991 11.2627 19.8547 11.2505C20.0104 11.2382 20.1578 11.1758 20.2749 11.0726C20.3921 10.9693 20.4725 10.8309 20.5042 10.678C20.5358 10.5252 20.517 10.3661 20.4506 10.2249C20.3922 10.1011 20.2999 9.99653 20.1844 9.92322C20.0689 9.84991 19.9349 9.81092 19.7981 9.81079Z" fill="black"/>
<path d="M22.112 15.9515C22.0148 15.9515 21.9197 15.9239 21.8376 15.8719C21.7556 15.8199 21.69 15.7456 21.6486 15.6577L19.8605 11.8638C19.8026 11.7408 19.796 11.5997 19.8421 11.4718C19.8881 11.3439 19.9832 11.2395 20.1062 11.1816C20.2293 11.1237 20.3703 11.1171 20.4982 11.1632C20.6262 11.2092 20.7306 11.3043 20.7885 11.4273L22.5753 15.2213C22.6121 15.2993 22.6286 15.3854 22.6232 15.4715C22.6178 15.5576 22.5907 15.641 22.5445 15.7138C22.4983 15.7867 22.4344 15.8467 22.3588 15.8882C22.2832 15.9298 22.1983 15.9515 22.112 15.9515Z" fill="black"/>
<path d="M10.0678 14.9432C9.97306 14.9433 9.88013 14.9171 9.79937 14.8675C9.71861 14.8179 9.6532 14.7469 9.61041 14.6624C9.56762 14.5778 9.54913 14.483 9.55701 14.3886C9.56489 14.2942 9.59882 14.2038 9.65502 14.1275L12.039 10.6952C12.0772 10.6383 12.1265 10.5897 12.1839 10.5522C12.2412 10.5147 12.3055 10.4891 12.373 10.4769C12.4404 10.4647 12.5096 10.4662 12.5765 10.4813C12.6433 10.4963 12.7065 10.5246 12.7622 10.5646C12.8179 10.6045 12.865 10.6552 12.9008 10.7136C12.9365 10.7721 12.9602 10.8371 12.9703 10.9049C12.9805 10.9727 12.9769 11.0418 12.9599 11.1082C12.9428 11.1746 12.9126 11.2368 12.871 11.2913L10.488 14.7233C10.4409 14.7911 10.378 14.8465 10.3049 14.8848C10.2317 14.9231 10.1504 14.9431 10.0678 14.9432Z" fill="black"/>
<path d="M17.609 22.4321C17.5946 22.4321 17.5802 22.4321 17.5658 22.4321L13.3984 22.0833C13.2629 22.0736 13.1369 22.0104 13.048 21.9077C12.9592 21.805 12.9147 21.6712 12.9245 21.5358C12.9342 21.4003 12.9974 21.2743 13.1001 21.1854C13.2028 21.0966 13.3365 21.0521 13.472 21.0619L17.6509 21.4113C17.7799 21.4254 17.8988 21.4879 17.9835 21.5863C18.0681 21.6847 18.1123 21.8116 18.1069 21.9413C18.1016 22.071 18.0472 22.1938 17.9548 22.2849C17.8623 22.3761 17.7387 22.4287 17.609 22.4321Z" fill="black"/>
<path d="M11.6765 20.8668C11.5793 20.8668 11.4842 20.8392 11.4021 20.7872C11.3201 20.7352 11.2545 20.6609 11.2131 20.573L9.42622 16.7791C9.39756 16.7183 9.38116 16.6524 9.37796 16.5852C9.37476 16.5181 9.38482 16.4509 9.40757 16.3877C9.43031 16.3244 9.4653 16.2662 9.51053 16.2164C9.55576 16.1667 9.61035 16.1263 9.67118 16.0977C9.73201 16.069 9.79788 16.0526 9.86505 16.0494C9.93222 16.0462 9.99935 16.0563 10.0626 16.079C10.1259 16.1018 10.1841 16.1367 10.2338 16.182C10.2836 16.2272 10.324 16.2818 10.3526 16.3426L12.1395 20.1365C12.1763 20.2146 12.1927 20.3006 12.1873 20.3867C12.182 20.4728 12.1549 20.5561 12.1087 20.629C12.0625 20.7018 11.9987 20.7618 11.9231 20.8034C11.8476 20.845 11.7627 20.8668 11.6765 20.8668Z" fill="black"/>
<path d="M18.5699 10.94C18.5555 10.94 18.5414 10.94 18.5274 10.9381L14.359 10.5896C14.2467 10.5825 14.1398 10.5385 14.055 10.4645C13.9701 10.3906 13.912 10.2907 13.8897 10.1804C13.8673 10.0701 13.8819 9.95544 13.9312 9.85425C13.9806 9.75307 14.0619 9.67096 14.1626 9.62064C14.2466 9.57854 14.3406 9.56039 14.4342 9.56816L18.6016 9.91664C18.7374 9.92088 18.8659 9.9789 18.959 10.0779C19.052 10.1769 19.1018 10.3088 19.0976 10.4446C19.0934 10.5804 19.0353 10.709 18.9363 10.802C18.8373 10.895 18.7054 10.9449 18.5696 10.9406L18.5699 10.94Z" fill="black"/>
<path d="M19.5398 21.5236C19.4464 21.5235 19.3547 21.4978 19.2748 21.4494C19.1949 21.4009 19.1298 21.3314 19.0866 21.2486C19.0433 21.1658 19.0236 21.0727 19.0295 20.9794C19.0354 20.8861 19.0667 20.7962 19.12 20.7195L21.512 17.276C21.5499 17.2183 21.599 17.1689 21.6564 17.1307C21.7138 17.0925 21.7784 17.0662 21.8462 17.0536C21.914 17.041 21.9836 17.0421 22.051 17.0571C22.1183 17.072 22.1819 17.1004 22.238 17.1406C22.2941 17.1807 22.3415 17.2318 22.3774 17.2907C22.4132 17.3496 22.4368 17.4152 22.4467 17.4835C22.4566 17.5517 22.4526 17.6213 22.435 17.688C22.4173 17.7546 22.3864 17.8171 22.344 17.8715L19.96 21.3038C19.9129 21.3716 19.8501 21.427 19.7769 21.4653C19.7037 21.5036 19.6224 21.5236 19.5398 21.5236Z" fill="black"/>
</svg>
