<svg width="32" height="32" viewBox="0 0 32 32" fill="none" xmlns="http://www.w3.org/2000/svg">
<g clip-path="url(#clip0_210_15842)">
<path fill-rule="evenodd" clip-rule="evenodd" d="M11.4112 17.0484C11.3693 18.042 11.2531 19.1441 10.8867 20.0836C10.4074 21.313 9.52225 22.281 7.89345 22.4897C3.33537 23.0734 0.702727 18.7831 2.27585 12.834C3.03905 9.94728 4.58785 7.54056 6.38817 6.24136C8.30209 4.86024 10.4966 4.68104 12.432 6.35464C13.617 7.3796 14.0394 8.322 14.0714 9.18504C14.103 10.0423 13.7367 10.8446 13.2461 11.6154C12.7479 12.3991 12.1107 13.1466 11.8083 13.923L12.2442 14.0596C13.8349 14.5585 14.9178 16.0327 14.9178 17.6999V26.3601C14.9178 26.625 14.7024 26.8401 14.4378 26.8401C14.1728 26.8401 13.9578 26.625 13.9578 26.3601V17.6999C13.9578 16.4522 13.1475 15.3489 11.9568 14.9758L7.79329 13.6702C7.54049 13.5911 7.39969 13.3214 7.47905 13.0686C7.55841 12.8158 7.82785 12.675 8.08065 12.7543L9.04481 13.0564C8.79777 12.5838 8.59105 12.002 8.59105 11.3793C8.59105 11.1143 8.80641 10.8993 9.07105 10.8993C9.33601 10.8993 9.55105 11.1143 9.55105 11.3793C9.55105 12.4622 10.385 13.3745 10.5258 13.521L10.8925 13.6359C11.2189 12.7854 11.8918 11.9559 12.4362 11.1002C12.8179 10.5002 13.1366 9.88776 13.112 9.22024C13.0877 8.55848 12.7126 7.86664 11.8038 7.08072C10.2496 5.73704 8.48705 5.9108 6.95009 7.01992C5.29921 8.21128 3.90369 10.4327 3.20385 13.0794C1.85025 18.1985 3.84929 22.0398 7.77153 21.5374C8.98465 21.3822 9.63553 20.6506 9.99233 19.7348C10.3549 18.8052 10.4346 17.6983 10.4621 16.7358L9.38529 16.426C9.20033 16.6202 8.91489 16.9409 8.66721 17.3057C8.43329 17.6503 8.2176 18.0318 8.2176 18.3754C8.2176 18.6401 8.00256 18.8554 7.7376 18.8554C7.47264 18.8554 7.25761 18.6401 7.25761 18.3754C7.25761 17.8654 7.52577 17.2778 7.87297 16.7665C8.03137 16.5335 8.20289 16.3162 8.36065 16.131L7.80417 15.9706C7.54977 15.8974 7.40257 15.6311 7.47585 15.3767C7.54913 15.122 7.81537 14.9748 8.06977 15.0481L9.30176 15.403C9.3568 15.4087 9.4112 15.4241 9.46176 15.449L11.4016 16.0074C12.3219 16.2724 12.9558 17.1143 12.9558 18.0721V26.3601C12.9558 26.625 12.7408 26.8401 12.4758 26.8401C12.2109 26.8401 11.9958 26.625 11.9958 26.3601V18.0721C11.9958 17.6442 11.767 17.2583 11.4112 17.0484ZM22.9552 13.0564L23.9194 12.7543C24.1722 12.675 24.4416 12.8158 24.521 13.0686C24.6003 13.3214 24.4595 13.5911 24.2067 13.6702L20.0432 14.9758C18.8525 15.3489 18.0422 16.4522 18.0422 17.6999V26.3601C18.0422 26.625 17.8272 26.8401 17.5622 26.8401C17.2976 26.8401 17.0822 26.625 17.0822 26.3601V17.6999C17.0822 16.0327 18.1651 14.5585 19.7558 14.0596L20.1917 13.923C19.8893 13.1466 19.2522 12.3991 18.7539 11.6154C18.2634 10.8446 17.897 10.0423 17.9286 9.18504C17.9606 8.322 18.383 7.3796 19.568 6.35464C21.5034 4.68104 23.6979 4.86024 25.6118 6.24136C27.4122 7.54056 28.961 9.94728 29.7242 12.834C31.2973 18.7831 28.6646 23.0734 24.1066 22.4897C22.4778 22.281 21.5926 21.313 21.1133 20.0836C20.7469 19.1441 20.6307 18.042 20.5888 17.0484C20.233 17.2583 20.0042 17.6442 20.0042 18.0721V26.3601C20.0042 26.625 19.7891 26.8401 19.5242 26.8401C19.2592 26.8401 19.0442 26.625 19.0442 26.3601V18.0721C19.0442 17.1143 19.6781 16.2724 20.5984 16.0074L22.5382 15.449C22.5888 15.4241 22.6432 15.4087 22.6982 15.403L23.9303 15.0481C24.1847 14.9748 24.4509 15.122 24.5242 15.3767C24.5974 15.6311 24.4502 15.8974 24.1958 15.9706L23.6394 16.131C23.7971 16.3162 23.9686 16.5335 24.127 16.7665C24.4742 17.2778 24.7424 17.8654 24.7424 18.3754C24.7424 18.6401 24.5274 18.8554 24.2624 18.8554C23.9974 18.8554 23.7824 18.6401 23.7824 18.3754C23.7824 18.0318 23.5667 17.6503 23.3328 17.3057C23.0851 16.9409 22.7997 16.6202 22.6147 16.426L21.5379 16.7358C21.5654 17.6983 21.6451 18.8052 22.0077 19.7348C22.3645 20.6506 23.0154 21.3822 24.2285 21.5374C28.1507 22.0398 30.1498 18.1985 28.7962 13.0794C28.0963 10.4327 26.7008 8.21128 25.0499 7.01992C23.513 5.9108 21.7504 5.73704 20.1962 7.08072C19.2874 7.86664 18.9123 8.55848 18.888 9.22024C18.8634 9.88776 19.1821 10.5002 19.5638 11.1002C20.1082 11.9559 20.7811 12.7854 21.1075 13.6359L21.4742 13.521C21.615 13.3745 22.449 12.4622 22.449 11.3793C22.449 11.1143 22.664 10.8993 22.929 10.8993C23.1936 10.8993 23.409 11.1143 23.409 11.3793C23.409 12.002 23.2022 12.5838 22.9552 13.0564Z" fill="black"/>
</g>
<defs>
<clipPath id="clip0_210_15842">
<rect width="32" height="32" fill="white"/>
</clipPath>
</defs>
</svg>
