<svg width="32" height="32" viewBox="0 0 32 32" fill="none" xmlns="http://www.w3.org/2000/svg">
<path d="M25.8185 14.0286C25.5215 14.0275 25.2275 14.0887 24.9556 14.2082C24.6837 14.3278 24.44 14.5031 24.2401 14.7229L23.2512 14.4746C23.0946 13.8167 22.8462 13.184 22.5134 12.5953L23.1843 11.4221C23.551 11.6504 23.9889 11.7358 24.4146 11.6621C24.8402 11.5884 25.2239 11.3607 25.4925 11.0223C25.7611 10.684 25.8958 10.2587 25.8711 9.82745C25.8463 9.39618 25.6638 8.98908 25.3583 8.68369L23.6521 6.97752C23.347 6.67096 22.9397 6.48753 22.5079 6.46228C22.0761 6.43702 21.6502 6.5717 21.3114 6.8406C20.9727 7.1095 20.7449 7.49377 20.6715 7.92C20.5981 8.34623 20.6843 8.78456 20.9137 9.15125L19.7402 9.82266C19.1516 9.48955 18.5189 9.24116 17.8608 9.08482L17.6126 8.09595C17.9305 7.80472 18.153 7.42425 18.2509 7.00439C18.3488 6.58454 18.3176 6.14489 18.1614 5.74307C18.0052 5.34125 17.7312 4.996 17.3754 4.75258C17.0195 4.50915 16.5984 4.37891 16.1673 4.37891C15.7362 4.37891 15.3151 4.50915 14.9593 4.75258C14.6034 4.996 14.3295 5.34125 14.1732 5.74307C14.017 6.14489 13.9858 6.58454 14.0837 7.00439C14.1817 7.42425 14.4041 7.80472 14.722 8.09595L14.4738 9.08482C13.8158 9.2412 13.1831 9.4896 12.5944 9.82266L11.421 9.15125C11.6484 8.78466 11.7333 8.34727 11.6594 7.92222C11.5855 7.49717 11.358 7.11408 11.0202 6.84577C10.6823 6.57746 10.2577 6.44264 9.8269 6.46693C9.39615 6.49122 8.98934 6.67293 8.68379 6.97752L6.9776 8.68369C6.67208 8.98908 6.48956 9.39618 6.46482 9.82745C6.44008 10.2587 6.57484 10.684 6.84344 11.0223C7.11203 11.3607 7.49569 11.5884 7.92134 11.6621C8.34699 11.7358 8.78488 11.6504 9.15161 11.4221L9.82278 12.5953C9.48966 13.1839 9.24127 13.8166 9.08492 14.4746L8.09604 14.7229C7.80481 14.405 7.42433 14.1825 7.00447 14.0846C6.58461 13.9866 6.14495 14.0178 5.74313 14.1741C5.3413 14.3303 4.99605 14.6043 4.75262 14.9601C4.5092 15.3159 4.37895 15.737 4.37895 16.1681C4.37895 16.5993 4.5092 17.0203 4.75262 17.3761C4.99605 17.732 5.3413 18.006 5.74313 18.1622C6.14495 18.3184 6.58461 18.3496 7.00447 18.2517C7.42433 18.1538 7.80481 17.9313 8.09604 17.6134L9.08492 17.8616C9.24131 18.5196 9.48971 19.1523 9.82278 19.741L9.15135 20.9147C8.78464 20.6857 8.34648 20.5998 7.92047 20.6733C7.49446 20.7468 7.11042 20.9746 6.84163 21.3132C6.57284 21.6518 6.4381 22.0774 6.46313 22.509C6.48816 22.9406 6.67121 23.3478 6.97734 23.6531L8.68354 25.3592C8.98893 25.6644 9.39589 25.8467 9.82694 25.8712C10.258 25.8958 10.683 25.761 11.0211 25.4925C11.3592 25.224 11.5868 24.8406 11.6605 24.4151C11.7341 23.9897 11.6488 23.5521 11.4207 23.1855L12.5942 22.5141C13.1828 22.8472 13.8155 23.0956 14.4735 23.2519L14.7218 24.2408C14.4039 24.532 14.1814 24.9125 14.0835 25.3324C13.9855 25.7522 14.0167 26.1919 14.173 26.5937C14.3292 26.9955 14.6032 27.3408 14.959 27.5842C15.3149 27.8276 15.7359 27.9579 16.1671 27.9579C16.5982 27.9579 17.0193 27.8276 17.3751 27.5842C17.7309 27.3408 18.0049 26.9955 18.1612 26.5937C18.3174 26.1919 18.3486 25.7522 18.2507 25.3324C18.1527 24.9125 17.9302 24.532 17.6123 24.2408L17.8606 23.2519C18.5186 23.0956 19.1513 22.8472 19.74 22.5141L20.9134 23.1855C20.6847 23.5522 20.599 23.9903 20.6726 24.4161C20.7462 24.842 20.9739 25.2259 21.3124 25.4946C21.6509 25.7633 22.0765 25.898 22.508 25.873C22.9394 25.8481 23.3466 25.6652 23.6519 25.3592L25.3581 23.6531C25.6636 23.3477 25.8461 22.9406 25.8708 22.5093C25.8956 22.078 25.7608 21.6527 25.4922 21.3144C25.2236 20.9761 24.84 20.7484 24.4143 20.6747C23.9887 20.601 23.5508 20.6864 23.184 20.9147L22.5129 19.7415C22.8459 19.1528 23.0943 18.5201 23.2507 17.8621L24.2396 17.6139C24.48 17.8764 24.782 18.0748 25.1183 18.1911C25.4547 18.3074 25.8148 18.338 26.1659 18.2801C26.5171 18.2223 26.8483 18.0777 27.1295 17.8596C27.4107 17.6414 27.6331 17.3566 27.7765 17.0309C27.9199 16.7052 27.9798 16.3488 27.9508 15.9941C27.9217 15.6394 27.8047 15.2975 27.6102 14.9994C27.4158 14.7013 27.1501 14.4565 26.8371 14.287C26.5242 14.1174 26.1739 14.0287 25.818 14.0286H25.8185ZM25.8185 17.2024C25.6402 17.203 25.4648 17.1573 25.3095 17.0697C25.1543 16.9821 25.0244 16.8556 24.9328 16.7026C24.8716 16.6016 24.7796 16.5228 24.6704 16.4779C24.5612 16.4329 24.4404 16.4242 24.3258 16.4529L22.6523 16.8725C22.5485 16.8976 22.4542 16.9521 22.3807 17.0296C22.3073 17.1071 22.2578 17.2042 22.2383 17.3091C22.0973 18.0666 21.8144 18.7906 21.4046 19.443C21.3514 19.5278 21.3223 19.6254 21.3203 19.7254C21.3183 19.8255 21.3435 19.9242 21.3932 20.011L22.5595 22.0511C22.6017 22.1248 22.6603 22.1878 22.7308 22.2352C22.8013 22.2826 22.8818 22.3131 22.966 22.3244C23.0502 22.3356 23.1359 22.3273 23.2163 22.3001C23.2968 22.2729 23.3699 22.2275 23.43 22.1675L23.6508 21.9466C23.7734 21.8241 23.9397 21.7552 24.1131 21.7552C24.2865 21.7552 24.4527 21.8241 24.5753 21.9466C24.6979 22.0692 24.7668 22.2355 24.7668 22.4089C24.7668 22.5822 24.6979 22.7485 24.5753 22.8711L22.8694 24.577C22.7468 24.6996 22.5805 24.7685 22.4071 24.7685C22.2338 24.7685 22.0675 24.6996 21.9449 24.577C21.8223 24.4544 21.7534 24.2882 21.7534 24.1148C21.7534 23.9414 21.8223 23.7752 21.9449 23.6526L22.1657 23.4317C22.2258 23.3716 22.2712 23.2985 22.2984 23.218C22.3256 23.1376 22.3339 23.0519 22.3227 22.9677C22.3114 22.8835 22.2809 22.8031 22.2335 22.7326C22.1861 22.6621 22.1231 22.6035 22.0494 22.5613L20.0092 21.3949C19.9224 21.3452 19.8237 21.3201 19.7237 21.3221C19.6236 21.3241 19.526 21.3532 19.4413 21.4063C18.7891 21.8156 18.0656 22.0982 17.3086 22.239C17.2044 22.2587 17.108 22.3078 17.0309 22.3805C16.9538 22.4533 16.8992 22.5466 16.8735 22.6495L16.4528 24.3263C16.4241 24.4408 16.4329 24.5616 16.4778 24.6708C16.5228 24.7801 16.6016 24.8721 16.7026 24.9333C16.896 25.05 17.0459 25.2269 17.1293 25.4369C17.2127 25.6469 17.225 25.8784 17.1644 26.0961C17.1038 26.3138 16.9736 26.5056 16.7937 26.6423C16.6138 26.779 16.394 26.853 16.1681 26.853C15.9421 26.853 15.7224 26.779 15.5425 26.6423C15.3625 26.5056 15.2323 26.3138 15.1717 26.0961C15.1111 25.8784 15.1235 25.6469 15.2069 25.4369C15.2903 25.2269 15.4401 25.05 15.6336 24.9333C15.7346 24.8721 15.8134 24.7801 15.8583 24.6708C15.9033 24.5616 15.912 24.4408 15.8833 24.3263L15.4634 22.6528C15.4384 22.5489 15.3838 22.4546 15.3063 22.3811C15.2288 22.3076 15.1316 22.2582 15.0266 22.2387C14.269 22.0979 13.545 21.815 12.8926 21.405C12.8079 21.3519 12.7102 21.3227 12.6102 21.3207C12.5102 21.3187 12.4115 21.3439 12.3246 21.3936L10.2845 22.56C10.2108 22.6022 10.1478 22.6608 10.1004 22.7313C10.053 22.8018 10.0225 22.8823 10.0112 22.9665C9.99996 23.0507 10.0083 23.1363 10.0355 23.2168C10.0627 23.2972 10.1081 23.3704 10.1681 23.4304L10.389 23.6513C10.5116 23.7739 10.5804 23.9402 10.5804 24.1135C10.5804 24.2869 10.5116 24.4532 10.389 24.5758C10.2664 24.6983 10.1001 24.7672 9.92674 24.7672C9.75336 24.7672 9.58709 24.6983 9.4645 24.5758L7.75856 22.8698C7.63597 22.7472 7.56709 22.581 7.56709 22.4076C7.56709 22.2342 7.63597 22.068 7.75856 21.9454C7.88115 21.8228 8.04742 21.7539 8.22079 21.7539C8.39417 21.7539 8.56044 21.8228 8.68303 21.9454L8.90388 22.1662C8.96397 22.2263 9.03708 22.2717 9.11755 22.2989C9.19802 22.3261 9.28368 22.3344 9.36787 22.3231C9.45207 22.3119 9.53254 22.2814 9.60303 22.234C9.67353 22.1866 9.73215 22.1236 9.77435 22.0498L10.9407 20.0097C10.9904 19.9229 11.0156 19.8242 11.0136 19.7242C11.0115 19.6242 10.9824 19.5265 10.9293 19.4418C10.5199 18.7897 10.2374 18.0661 10.0966 17.3091C10.0769 17.2049 10.0278 17.1086 9.95507 17.0315C9.88231 16.9544 9.78897 16.8997 9.68611 16.874L8.00933 16.4534C7.89474 16.4247 7.77397 16.4335 7.66473 16.4784C7.55549 16.5233 7.46352 16.6021 7.40231 16.7031C7.28554 16.8966 7.10863 17.0464 6.89864 17.1298C6.68865 17.2132 6.45712 17.2256 6.23945 17.165C6.02178 17.1044 5.82994 16.9742 5.69327 16.7942C5.55659 16.6143 5.4826 16.3946 5.4826 16.1686C5.4826 15.9427 5.55659 15.723 5.69327 15.543C5.82994 15.3631 6.02178 15.2329 6.23945 15.1723C6.45712 15.1117 6.68865 15.124 6.89864 15.2074C7.10863 15.2908 7.28554 15.4407 7.40231 15.6341C7.46352 15.7352 7.55549 15.8139 7.66473 15.8589C7.77397 15.9038 7.89474 15.9126 8.00933 15.8839L9.68433 15.4638C9.78785 15.4385 9.88186 15.3838 9.95501 15.3064C10.0282 15.2289 10.0773 15.1319 10.0966 15.0271C10.2376 14.2696 10.5206 13.5456 10.9306 12.8932C10.9837 12.8084 11.0128 12.7108 11.0148 12.6108C11.0168 12.5108 10.9917 12.4121 10.942 12.3252L9.77562 10.2851C9.73342 10.2114 9.67479 10.1484 9.6043 10.101C9.53381 10.0536 9.45334 10.0231 9.36914 10.0119C9.28495 10.0006 9.19929 10.0089 9.11882 10.0361C9.03835 10.0633 8.96523 10.1087 8.90515 10.1688L8.6843 10.3896C8.56171 10.5122 8.39544 10.5811 8.22206 10.5811C8.04869 10.5811 7.88242 10.5122 7.75983 10.3896C7.63723 10.267 7.56836 10.1007 7.56836 9.92738C7.56836 9.75401 7.63723 9.58774 7.75983 9.46515L9.46577 7.75923C9.58836 7.63664 9.75463 7.56777 9.928 7.56777C10.1014 7.56777 10.2676 7.63664 10.3902 7.75923C10.5128 7.88182 10.5817 8.04809 10.5817 8.22146C10.5817 8.39483 10.5128 8.5611 10.3902 8.68369L10.1694 8.90454C10.1093 8.96462 10.064 9.03774 10.0367 9.1182C10.0095 9.19867 10.0012 9.28433 10.0125 9.36852C10.0237 9.45272 10.0543 9.53319 10.1017 9.60368C10.149 9.67417 10.2121 9.73279 10.2858 9.77499L12.3259 10.9413C12.4127 10.991 12.5114 11.0162 12.6115 11.0142C12.7115 11.0122 12.8091 10.9831 12.8939 10.9299C13.546 10.5207 14.2696 10.2383 15.0266 10.0975C15.131 10.0777 15.2275 10.0283 15.3047 9.95528C15.3819 9.88225 15.4366 9.78862 15.4622 9.68549L15.8823 8.01C15.911 7.89541 15.9022 7.77465 15.8573 7.66541C15.8124 7.55617 15.7336 7.4642 15.6326 7.40299C15.4391 7.28622 15.2892 7.10932 15.2058 6.89933C15.1224 6.68934 15.1101 6.45781 15.1707 6.24014C15.2313 6.02247 15.3615 5.83064 15.5415 5.69397C15.7214 5.55729 15.9411 5.4833 16.1671 5.4833C16.393 5.4833 16.6127 5.55729 16.7927 5.69397C16.9726 5.83064 17.1028 6.02247 17.1634 6.24014C17.224 6.45781 17.2117 6.68934 17.1283 6.89933C17.0449 7.10932 16.895 7.28622 16.7016 7.40299C16.6005 7.4642 16.5218 7.55617 16.4768 7.66541C16.4319 7.77465 16.4231 7.89541 16.4518 8.01L16.8717 9.68346C16.8968 9.7873 16.9513 9.88165 17.0289 9.95513C17.1064 10.0286 17.2036 10.0781 17.3086 10.0975C18.0661 10.2385 18.7901 10.5213 19.4425 10.9312C19.5273 10.9843 19.6249 11.0134 19.7249 11.0155C19.825 11.0175 19.9237 10.9923 20.0105 10.9426L22.0506 9.77626C22.1244 9.73406 22.1874 9.67544 22.2348 9.60495C22.2822 9.53445 22.3127 9.45399 22.3239 9.36979C22.3352 9.2856 22.3269 9.19994 22.2997 9.11947C22.2725 9.039 22.2271 8.96589 22.167 8.90581L21.9462 8.68496C21.8855 8.62426 21.8373 8.5522 21.8045 8.47289C21.7716 8.39358 21.7547 8.30857 21.7547 8.22273C21.7547 8.13688 21.7716 8.05188 21.8045 7.97257C21.8373 7.89326 21.8855 7.8212 21.9462 7.7605C22.0688 7.63791 22.235 7.56904 22.4084 7.56904C22.4943 7.56904 22.5793 7.58594 22.6586 7.6188C22.7379 7.65165 22.8099 7.6998 22.8706 7.7605L24.5766 9.46642C24.6373 9.52712 24.6854 9.59918 24.7183 9.67849C24.7511 9.7578 24.768 9.8428 24.768 9.92865C24.768 10.0145 24.7511 10.0995 24.7183 10.1788C24.6854 10.2581 24.6373 10.3302 24.5766 10.3909C24.5159 10.4516 24.4438 10.4997 24.3645 10.5326C24.2852 10.5654 24.2002 10.5823 24.1143 10.5823C24.0285 10.5823 23.9435 10.5654 23.8642 10.5326C23.7849 10.4997 23.7128 10.4516 23.6521 10.3909L23.4313 10.17C23.3712 10.11 23.2981 10.0646 23.2176 10.0374C23.1371 10.0102 23.0515 10.0019 22.9673 10.0131C22.8831 10.0244 22.8026 10.0549 22.7321 10.1023C22.6616 10.1497 22.603 10.2127 22.5608 10.2864L21.3944 12.3265C21.3447 12.4134 21.3196 12.5121 21.3216 12.6121C21.3236 12.7121 21.3527 12.8097 21.4058 12.8945C21.8152 13.5466 22.0977 14.2702 22.2385 15.0271C22.2582 15.1313 22.3073 15.2277 22.3801 15.3048C22.4528 15.3819 22.5462 15.4365 22.649 15.4622L24.3258 15.8829C24.4404 15.9117 24.5612 15.9029 24.6705 15.858C24.7797 15.813 24.8717 15.7342 24.9328 15.6331C25.0262 15.4784 25.1585 15.3509 25.3165 15.2633C25.4745 15.1756 25.6527 15.1308 25.8333 15.1335C26.014 15.1361 26.1908 15.186 26.3462 15.2783C26.5016 15.3705 26.6301 15.5018 26.7189 15.6592C26.8077 15.8165 26.8538 15.9944 26.8525 16.175C26.8512 16.3557 26.8026 16.5329 26.7115 16.689C26.6205 16.845 26.4901 16.9745 26.3334 17.0645C26.1767 17.1545 25.9992 17.2018 25.8185 17.2019V17.2024ZM16.1676 12.2018C15.3831 12.2018 14.6162 12.4344 13.9639 12.8702C13.3117 13.306 12.8033 13.9255 12.5031 14.6503C12.2029 15.375 12.1243 16.1725 12.2774 16.9419C12.4304 17.7113 12.8082 18.4181 13.3629 18.9728C13.9176 19.5275 14.6244 19.9052 15.3938 20.0583C16.1632 20.2113 16.9607 20.1328 17.6855 19.8326C18.4102 19.5324 19.0297 19.024 19.4655 18.3717C19.9014 17.7195 20.134 16.9526 20.134 16.1681C20.1328 15.1166 19.7145 14.1084 18.9709 13.3648C18.2273 12.6212 17.2192 12.203 16.1676 12.2018ZM16.1676 19.029C15.6017 19.029 15.0486 18.8612 14.5781 18.5468C14.1077 18.2325 13.741 17.7857 13.5244 17.2629C13.3079 16.7402 13.2513 16.165 13.3616 15.61C13.472 15.055 13.7445 14.5453 14.1446 14.1452C14.5447 13.7451 15.0545 13.4726 15.6094 13.3622C16.1644 13.2519 16.7396 13.3085 17.2624 13.525C17.7852 13.7416 18.232 14.1083 18.5463 14.5787C18.8607 15.0492 19.0285 15.6023 19.0285 16.1681C19.0273 16.9265 18.7255 17.6535 18.1893 18.1898C17.653 18.7261 16.926 19.0278 16.1676 19.029Z" fill="black"/>
</svg>
